# xmcd
#
# Track frame offsets:
#	150
#	15450
#	30575
#	44450
#	61400
#	78437
#	94000
#	107950
#	120225
#	133612
#	146550
#	157525
#	169275
#	185812
#	201800
#	213625
#	225825
#
# Disc length: 3208
#
# Revision: 2
# Processed by: cddbd v1.5.1PL0 Copyright (c) Steve Scherf et al.
# Submitted via: audiograbber 1.81.03
# Normalized: r1:DSETVAR1,TDELIM( - )
#
DISCID=dd0c8611
DTITLE=Various Artist - Country - The Nineties
DYEAR=1994
DGENRE=Country
TTITLE0=Charlie Daniels Band - Simple man
TTITLE1=Duke Stone - I'd be better off (in a pine box)
TTITLE2=Ricky Skaggs - Hummingbird
TTITLE3=Shenandoah - I got you
TTITLE4=Rodney Crowell - Lovin' all night
TTITLE5=Mike Reid - As simple as that
TTITLE6=Larry Boone - To be with you
TTITLE7=Joe Diffie - New way (to light up an old flame)
TTITLE8=Vern Gosdin - I knew my day would come
TTITLE9=Sweethearts of the Rodeo - Devil and your deep blue eyes
TTITLE10=Colin Raye - Every second
TTITLE11=Mary-Chapin Carpenter - Right now
TTITLE12=Ricky van Shelton - Back roads
TTITLE13=Dolly Parton - Romeo
TTITLE14=Dixiana - That's what I'm working on tonight
TTITLE15=Merle Haggard - If you want to be my woman
TTITLE16=Tom Wopat - Too many honky tonks (on my way home)
EXTD=
EXTT0=
EXTT1=
EXTT2=
EXTT3=
EXTT4=
EXTT5=
EXTT6=
EXTT7=
EXTT8=
EXTT9=
EXTT10=
EXTT11=
EXTT12=
EXTT13=
EXTT14=
EXTT15=
EXTT16=
PLAYORDER=
